<svg width="380" height="380" viewBox="0 0 380 380" xmlns="http://www.w3.org/2000/svg" role="img" aria-label="kiran-devhub skills radar"><title>kiran-devhub skills radar</title><rect x="1" y="1" width="378" height="378" rx="14" fill="#05080c" stroke="#2dd8c8" stroke-width="1.4"/><circle cx="20" cy="20" r="4.5" fill="#ff5f57"/><circle cx="34" cy="20" r="4.5" fill="#febc2e"/><circle cx="48" cy="20" r="4.5" fill="#28c840"/><text x="190.0" y="24" text-anchor="middle" font-family="ui-monospace,SFMono-Regular,Consolas,monospace" font-size="11" fill="#5f8a86">kiran-devhub — SKILLS.RADAR</text><line x1="0" y1="34" x2="380" y2="34" stroke="#173039" stroke-width="1"/><polygon points="190.0,176.0 212.5,189.0 212.5,215.0 190.0,228.0 167.5,215.0 167.5,189.0" fill="none" stroke="#173039" stroke-width="1"/><polygon points="190.0,150.0 235.0,176.0 235.0,228.0 190.0,254.0 145.0,228.0 145.0,176.0" fill="none" stroke="#173039" stroke-width="1"/><polygon points="190.0,124.0 257.5,163.0 257.5,241.0 190.0,280.0 122.5,241.0 122.5,163.0" fill="none" stroke="#173039" stroke-width="1"/><polygon points="190.0,98.0 280.1,150.0 280.1,254.0 190.0,306.0 99.9,254.0 99.9,150.0" fill="none" stroke="#173039" stroke-width="1"/><polygon points="190.0,72.0 302.6,137.0 302.6,267.0 190.0,332.0 77.4,267.0 77.4,137.0" fill="none" stroke="#173039" stroke-width="1"/><line x1="190.0" y1="202.0" x2="190.0" y2="72.0" stroke="#173039" stroke-width="1"/><text x="190.0" y="56.0" text-anchor="middle" font-family="ui-monospace,SFMono-Regular,Consolas,monospace" font-size="10.5" fill="#dff7f1">Frontend</text><line x1="190.0" y1="202.0" x2="302.6" y2="137.0" stroke="#173039" stroke-width="1"/><text x="325.1" y="129.0" text-anchor="start" font-family="ui-monospace,SFMono-Regular,Consolas,monospace" font-size="10.5" fill="#dff7f1">Backend</text><line x1="190.0" y1="202.0" x2="302.6" y2="267.0" stroke="#173039" stroke-width="1"/><text x="325.1" y="275.0" text-anchor="start" font-family="ui-monospace,SFMono-Regular,Consolas,monospace" font-size="10.5" fill="#dff7f1">Security</text><line x1="190.0" y1="202.0" x2="190.0" y2="332.0" stroke="#173039" stroke-width="1"/><text x="190.0" y="348.0" text-anchor="middle" font-family="ui-monospace,SFMono-Regular,Consolas,monospace" font-size="10.5" fill="#dff7f1">Databases</text><line x1="190.0" y1="202.0" x2="77.4" y2="267.0" stroke="#173039" stroke-width="1"/><text x="54.9" y="275.0" text-anchor="end" font-family="ui-monospace,SFMono-Regular,Consolas,monospace" font-size="10.5" fill="#dff7f1">Cloud</text><line x1="190.0" y1="202.0" x2="77.4" y2="137.0" stroke="#173039" stroke-width="1"/><text x="54.9" y="129.0" text-anchor="end" font-family="ui-monospace,SFMono-Regular,Consolas,monospace" font-size="10.5" fill="#dff7f1">Tools</text><polygon points="190.0,106.3 272.9,154.2 252.1,237.9 190.0,273.8 127.9,237.9 107.1,154.2" fill="#ff3e7f" fill-opacity="0.22" stroke="#ff3e7f" stroke-width="2"/><circle cx="190.0" cy="106.3" r="3" fill="#ff3e7f"/><circle cx="272.9" cy="154.2" r="3" fill="#ff3e7f"/><circle cx="252.1" cy="237.9" r="3" fill="#ff3e7f"/><circle cx="190.0" cy="273.8" r="3" fill="#ff3e7f"/><circle cx="127.9" cy="237.9" r="3" fill="#ff3e7f"/><circle cx="107.1" cy="154.2" r="3" fill="#ff3e7f"/><text x="364" y="370" text-anchor="end" font-family="ui-monospace,SFMono-Regular,Consolas,monospace" font-size="9" fill="#5f8a86">source: assets/skills.json</text></svg>